<svg width="377" height="319" viewBox="0 0 377 319" fill="none" xmlns="http://www.w3.org/2000/svg">
<path d="M370.935 304.714L342.948 300.356L352.483 276.933L370.935 304.714Z" fill="#252525"/>
<path d="M134.138 223C134.138 209.193 145.331 198 159.138 198H331.908C345.716 198 356.908 209.193 356.908 223V300.087H159.138C145.331 300.087 134.138 288.894 134.138 275.087V223Z" fill="#252525"/>
<line x1="322.134" y1="280" x2="167.673" y2="280" stroke="white" stroke-width="2"/>
<line y1="-1" x2="96.5865" y2="-1" transform="matrix(-1 0 0.00694317 -0.999976 322.176 256.768)" stroke="white" stroke-width="2"/>
<line x1="322.611" y1="240" x2="262.179" y2="240" stroke="white" stroke-width="2"/>
<line x1="321.952" y1="222.795" x2="194.57" y2="222.795" stroke="white" stroke-width="2"/>
<path d="M6.81126 157.739L34.8696 122.062L46.6671 153.75L6.81126 157.739Z" fill="#252525"/>
<path d="M22.6004 25C22.6004 11.1929 33.7933 0 47.6004 0H229.85C243.657 0 254.85 11.1929 254.85 25V128.609C254.85 142.416 243.657 153.609 229.85 153.609H22.6004V25Z" fill="#252525"/>
<line y1="-1" x2="77.2374" y2="-1" transform="matrix(0.999907 -0.0136662 0.0141124 0.9999 54.8746 108)" stroke="white" stroke-width="2"/>
<line y1="-1" x2="175.379" y2="-1" transform="matrix(0.999964 -0.0085201 0.00543123 0.999985 54.8746 85.4942)" stroke="white" stroke-width="2"/>
<line x1="54.8746" y1="60" x2="181.664" y2="60" stroke="white" stroke-width="2"/>
<line x1="54.5941" y1="36.8458" x2="208.637" y2="36.8458" stroke="white" stroke-width="2"/>
</svg>
